<?xml version="1.0" encoding="UTF-8" standalone="no"?>
<!-- Created with Inkscape (http://www.inkscape.org/) -->

<svg
   width="51.312458mm"
   height="51.312462mm"
   viewBox="0 0 51.312458 51.312462"
   version="1.1"
   id="svg1"
   xml:space="preserve"
   xmlns="http://www.w3.org/2000/svg"
   xmlns:svg="http://www.w3.org/2000/svg"><defs
     id="defs1" /><g
     id="layer2"
     style="display:inline;opacity:1"
     transform="translate(-78.076013,-93.106664)"><circle
       style="opacity:1;fill:#dfd6c2;fill-opacity:1;stroke:#000000;stroke-width:0.717766;stroke-linecap:round;stroke-dasharray:none;stroke-opacity:1"
       id="path10"
       cx="103.73225"
       cy="118.76289"
       r="25.297346" /><path
       id="path10-8"
       style="display:inline;fill:#aa997e;fill-opacity:1;stroke:#000000;stroke-width:0.117154;stroke-linecap:round;stroke-dasharray:none;stroke-opacity:1"
       d="m 81.610601,130.33236 a 24.92852,25.304836 0 0 0 0.918652,1.70841 h 42.372017 a 24.92852,25.304836 0 0 0 0.91916,-1.70841 z" /><path
       style="opacity:1;fill:#4b4b47;fill-opacity:1;stroke:#000000;stroke-width:0.1;stroke-linecap:round;stroke-dasharray:none"
       d="m 96.751972,125.02695 -0.42628,2.14897 0.168902,1.4188 -7.793303,6.73829 -0.540491,1.35124 1.577903,-0.0692 -0.270496,1.5819 1.646811,-0.0845 -0.102191,1.61364 1.571654,-0.22018 8.136459,-7.72694 1.86833,-0.0519 2.23679,-1.36724 z"
       id="path5" /><path
       id="path1-9-6"
       style="opacity:1;fill:#4b4b47;stroke:#000000;stroke-width:0.0595335;stroke-linecap:round"
       d="m 106.66103,103.10514 c 2.52796,-1.93915 4.10143,-0.93741 5.74835,-0.48076 1.89331,0.52497 3.55385,3.03009 3.0835,3.98137 -0.41771,0.84484 -3.1653,-0.006 -4.31186,0.72712 -1.31384,0.83972 -2.62252,1.39297 -4.0745,1.6983 -1.10428,0.23223 -4.12428,0.32325 -4.69969,-0.21497 -1.24816,-1.16746 2.94274,-3.08814 4.25421,-5.71108 z" /><path
       id="path1-9"
       style="opacity:1;fill:#392b26;fill-opacity:1;stroke:#000000;stroke-width:0.0604818;stroke-linecap:round"
       d="m 29.871839,159.13275 c 0.281305,3.24398 -1.436177,3.65111 -2.748705,4.46804 -1.508892,0.93914 -4.638739,0.16873 -5.204607,-0.87993 -0.502547,-0.93132 1.764286,-2.22737 1.764287,-3.58811 1e-6,-1.55926 0.24626,-2.89896 0.787766,-4.15281 0.411833,-0.9536 0.86946,-1.70311 1.65735,-1.70311 1.70905,0 3.488483,2.91037 3.743909,5.85592 z m -8.341654,-6.39797"
       transform="matrix(0.60438087,-0.79669553,0.62232328,0.78276033,0,0)" /><path
       id="path1"
       style="opacity:1;fill:#5a5852;fill-opacity:1;stroke:#000000;stroke-width:0.159076;stroke-linecap:round"
       transform="matrix(0.83903537,0.54407687,-0.4300703,0.9027954,0,0)"
       d="m 154.70615,41.326488 c 0,8.238385 -3.36551,14.916915 -7.51708,14.916912 -4.15157,3e-6 -7.32666,-6.705511 -7.51708,-14.916912 -0.20414,-8.803276 1.46944,-13.132536 7.92117,-14.12856 4.71015,-0.727157 7.11299,5.890175 7.11299,14.12856 z" /><path
       id="path1-96"
       style="display:inline;fill:#5d5b55;fill-opacity:1;stroke:#000000;stroke-width:0.158396;stroke-linecap:round;stroke-opacity:1"
       d="m 96.806357,125.01354 c -0.150181,-3.3356 0.750668,-7.56136 2.61009,-11.70671 3.614753,-8.05863 6.880823,-11.05651 12.722413,-8.44548 0.21331,0.0953 0.41387,0.20413 0.60198,0.32571 l 0.0515,2.51748 -4.18015,5.30282 0.26337,1.86315 -4.48514,7.89962 -4.78347,5.45297 z" /><path
       style="display:inline;opacity:1;fill:#c7a30c;fill-opacity:1;stroke:#000000;stroke-width:0.1;stroke-linecap:round;stroke-dasharray:none"
       d="m 110.88795,99.913203 0.2213,1.482107 0.94136,0.92646 1.7566,0.0338 -0.0422,-1.21138 -0.43161,-0.57055 0.25426,-0.709399 -1.03412,-0.758851 z"
       id="path3" /><circle
       style="opacity:1;fill:#000000;fill-opacity:1;stroke:#000000;stroke-width:0.1;stroke-linecap:round;stroke-dasharray:none"
       id="path4"
       cx="113.841"
       cy="100.57058"
       r="0.523601" /><path
       style="opacity:1;fill:none;fill-opacity:1;stroke:#000000;stroke-width:0.1;stroke-linecap:round;stroke-dasharray:none"
       d="m 105.78937,129.69958 -3.96093,0.17169 -0.26275,-2.1259 7.30991,-12.87486 -0.26337,-1.86315 4.18015,-5.30282 1.30539,-1.11393"
       id="path6" /><path
       style="display:inline;opacity:1;fill:#b7b3b1;fill-opacity:1;stroke:#000000;stroke-width:0.1;stroke-linecap:round;stroke-dasharray:none"
       d="m 107.65677,97.313881 0.40607,-0.931577 0.81276,-0.286639 3.67791,3.009707 -0.47773,0.573278 0.97935,1.40931 -1.17044,-0.0717 -3.58299,-3.965171 z"
       id="path2" /><path
       style="opacity:1;fill:#2b201b;fill-opacity:1;stroke:#000000;stroke-width:0.1;stroke-linecap:round;stroke-dasharray:none"
       d="m 112.79238,107.70454 -0.0461,-2.51912"
       id="path8" /><circle
       style="display:inline;opacity:1;fill:#ffffff;fill-opacity:1;stroke:none;stroke-width:0;stroke-linecap:round;stroke-dasharray:none"
       id="path9"
       cx="114.00977"
       cy="100.40523"
       r="0.24145909" /></g></svg>
